REM DIRINDEX 1\2,1\4,1\3\5,1\3\6,1\3\7
REM DIRNAME cjc082,folder01,folder02,folder03,folder04,folder05,folder06
TITLE ""
FILE "CD1Track64.mp3" MP3
  TRACK 01 AUDIO
    TITLE "0:"
    INDEX 01 00:00:00
  TRACK 02 AUDIO
    TITLE "5:cjc082_1187"
    INDEX 01 00:00:27
  TRACK 03 AUDIO
    TITLE "0:"
    INDEX 01 00:01:46
  TRACK 04 AUDIO
    TITLE "6:cjc082_1188"
    INDEX 01 00:02:22
  TRACK 05 AUDIO
    TITLE "0:"
    INDEX 01 00:03:55
  TRACK 06 AUDIO
    TITLE "5:cjc082_1189"
    INDEX 01 00:04:23
  TRACK 07 AUDIO
    TITLE "0:"
    INDEX 01 00:05:56
  TRACK 08 AUDIO
    TITLE "6:cjc082_1190"
    INDEX 01 00:06:28
  TRACK 09 AUDIO
    TITLE "0:"
    INDEX 01 00:07:43
  TRACK 10 AUDIO
    TITLE "5:cjc082_1191"
    INDEX 01 00:08:19
  TRACK 11 AUDIO
    TITLE "0:"
    INDEX 01 00:09:26
  TRACK 12 AUDIO
    TITLE "6:cjc082_1192"
    INDEX 01 00:09:71
  TRACK 13 AUDIO
    TITLE "0:"
    INDEX 01 00:13:55
  TRACK 14 AUDIO
    TITLE "5:cjc082_1193"
    INDEX 01 00:14:23
  TRACK 15 AUDIO
    TITLE "0:"
    INDEX 01 00:15:36
  TRACK 16 AUDIO
    TITLE "6:cjc082_1194"
    INDEX 01 00:16:12
  TRACK 17 AUDIO
    TITLE "0:"
    INDEX 01 00:19:26
  TRACK 18 AUDIO
    TITLE "5:cjc082_1195"
    INDEX 01 00:19:73
  TRACK 19 AUDIO
    TITLE "0:"
    INDEX 01 00:21:25
  TRACK 20 AUDIO
    TITLE "6:cjc082_1196"
    INDEX 01 00:22:01
  TRACK 21 AUDIO
    TITLE "0:"
    INDEX 01 00:23:16
  TRACK 22 AUDIO
    TITLE "5:cjc082_1197"
    INDEX 01 00:23:65
  TRACK 23 AUDIO
    TITLE "0:"
    INDEX 01 00:25:19
  TRACK 24 AUDIO
    TITLE "6:cjc082_1198"
    INDEX 01 00:25:70
  TRACK 25 AUDIO
    TITLE "0:"
    INDEX 01 00:27:10
  TRACK 26 AUDIO
    TITLE "5:cjc082_1199"
    INDEX 01 00:27:57
  TRACK 27 AUDIO
    TITLE "0:"
    INDEX 01 00:28:72
  TRACK 28 AUDIO
    TITLE "6:cjc082_1200"
    INDEX 01 00:29:46
  TRACK 29 AUDIO
    TITLE "0:"
    INDEX 01 00:31:73
  TRACK 30 AUDIO
    TITLE "5:cjc082_1201"
    INDEX 01 00:32:45
  TRACK 31 AUDIO
    TITLE "0:"
    INDEX 01 00:33:64
  TRACK 32 AUDIO
    TITLE "6:cjc082_1202"
    INDEX 01 00:34:42
  TRACK 33 AUDIO
    TITLE "0:"
    INDEX 01 00:35:74
  TRACK 34 AUDIO
    TITLE "5:cjc082_1203"
    INDEX 01 00:36:48
  TRACK 35 AUDIO
    TITLE "0:"
    INDEX 01 00:38:47
  TRACK 36 AUDIO
    TITLE "6:cjc082_1204"
    INDEX 01 00:39:25
  TRACK 37 AUDIO
    TITLE "0:"
    INDEX 01 00:41:32
  TRACK 38 AUDIO
    TITLE "5:cjc082_1205"
    INDEX 01 00:42:04
  TRACK 39 AUDIO
    TITLE "0:"
    INDEX 01 00:43:25
  TRACK 40 AUDIO
    TITLE "6:cjc082_1206"
    INDEX 01 00:43:72
  TRACK 41 AUDIO
    TITLE "0:"
    INDEX 01 00:47:62
  TRACK 42 AUDIO
    TITLE "5:cjc082_1207"
    INDEX 01 00:48:38
  TRACK 43 AUDIO
    TITLE "0:"
    INDEX 01 00:49:61
  TRACK 44 AUDIO
    TITLE "6:cjc082_1208"
    INDEX 01 00:50:39
  TRACK 45 AUDIO
    TITLE "0:"
    INDEX 01 00:54:19
  TRACK 46 AUDIO
    TITLE "5:cjc082_1209"
    INDEX 01 00:54:58
  TRACK 47 AUDIO
    TITLE "0:"
    INDEX 01 00:56:02
  TRACK 48 AUDIO
    TITLE "6:cjc082_1210"
    INDEX 01 00:56:49
  TRACK 49 AUDIO
    TITLE "0:"
    INDEX 01 00:59:41
  TRACK 50 AUDIO
    TITLE "5:cjc082_1211"
    INDEX 01 01:00:12
  TRACK 51 AUDIO
    TITLE "0:"
    INDEX 01 01:01:52
  TRACK 52 AUDIO
    TITLE "6:cjc082_1212"
    INDEX 01 01:02:24
  TRACK 53 AUDIO
    TITLE "0:"
    INDEX 01 01:03:41
  TRACK 54 AUDIO
    TITLE "5:cjc082_1213"
    INDEX 01 01:04:15
  TRACK 55 AUDIO
    TITLE "0:"
    INDEX 01 01:05:26
  TRACK 56 AUDIO
    TITLE "6:cjc082_1214"
    INDEX 01 01:06:02
  TRACK 57 AUDIO
    TITLE "0:"
    INDEX 01 01:08:46
  TRACK 58 AUDIO
    TITLE "7:cjc082_1215"
    INDEX 01 01:10:10
  TRACK 59 AUDIO
    TITLE "0:"
    INDEX 01 01:20:26
